<svg width="114" height="26" viewBox="0 0 114 26" fill="none" xmlns="http://www.w3.org/2000/svg">
<path d="M77.824 20.4664H72.1994V12.3991C72.1994 11.78 72.134 11.3493 72.0034 11.1094C71.8728 10.8695 71.6368 10.7496 71.2965 10.7496C70.6652 10.7496 70.3489 11.3047 70.3489 12.414V20.4653H64.7243V12.398C64.7243 11.7788 64.6567 11.3482 64.5215 11.1083C64.3863 10.8684 64.148 10.7484 63.8077 10.7484C63.1855 10.7484 62.875 11.3036 62.875 12.4128V20.4641H57.2504V11.2579C57.2504 9.57865 57.8164 8.15185 58.9496 6.9775C60.0828 5.80316 61.4554 5.21599 63.0698 5.21599C64.6842 5.21599 66.2276 5.91626 67.5509 7.31564C69.0244 5.91626 70.499 5.21599 71.9725 5.21599C73.847 5.21599 75.3514 5.89569 76.4846 7.2551C77.3771 8.3152 77.8228 9.85967 77.8228 11.8885V20.4653L77.824 20.4664Z" fill="#18243E"/>
<path d="M80.4902 26V13.5255C80.4902 11.2362 81.0917 9.37188 82.2948 7.93251C82.9868 7.10316 83.8668 6.44288 84.9347 5.95281C86.0025 5.46274 87.0979 5.21828 88.2208 5.21828C90.4562 5.21828 92.341 5.96766 93.8752 7.46758C95.4094 8.96749 96.1759 10.8067 96.1759 12.9851C96.1759 15.1636 95.414 16.9343 93.8901 18.473C92.3662 20.0129 90.5616 20.7817 88.4763 20.7817C88.1348 20.7817 87.6341 20.7463 86.973 20.6766V14.4988C87.4336 14.8689 87.8954 15.054 88.356 15.054C88.938 15.054 89.4364 14.8392 89.8523 14.4097C90.2683 13.9801 90.4768 13.4706 90.4768 12.8801C90.4768 12.2895 90.2614 11.788 89.8294 11.3733C89.3986 10.9586 88.8819 10.7507 88.2803 10.7507C86.8367 10.7507 86.1148 11.7457 86.1148 13.7345V20.4664C86.006 21.0216 85.4125 23.7336 82.9353 25.1855C82.0232 25.7201 81.1341 25.9212 80.4902 25.9989V26Z" fill="#18243E"/>
<path d="M105.756 5.20343C107.881 5.20343 109.703 5.96538 111.222 7.49042C112.742 9.01432 113.501 10.8421 113.501 12.9703C113.501 15.0985 112.731 16.9685 111.192 18.4879C109.654 20.0072 107.796 20.7669 105.621 20.7669C103.445 20.7669 101.585 20.0049 100.041 18.4799C98.4961 16.956 97.725 15.1191 97.725 12.9692C97.725 10.8192 98.4972 8.93893 100.041 7.44358C101.584 5.94938 103.489 5.20228 105.756 5.20228V5.20343ZM105.604 10.7359C105.003 10.7359 104.492 10.9529 104.07 11.3881C103.649 11.8234 103.439 12.3557 103.439 12.9851C103.439 13.6146 103.652 14.1344 104.078 14.5742C104.505 15.014 105.013 15.2344 105.604 15.2344C106.196 15.2344 106.719 15.0151 107.146 14.5742C107.572 14.1344 107.785 13.6043 107.785 12.9851C107.785 12.366 107.574 11.8234 107.154 11.3881C106.732 10.9529 106.216 10.7359 105.604 10.7359Z" fill="#18243E"/>
<path d="M34.9032 14.0715C34.5652 13.2856 34.6442 11.2682 34.6442 10.079H35.9321C36.6161 10.079 37.1707 9.5261 37.1707 8.84411V6.9638C37.1707 6.28181 36.6161 5.72891 35.9321 5.72891H34.6442V1.23489C34.6442 0.5529 34.0897 0 33.4056 0H32.992C32.646 0 32.3171 0.143937 32.0823 0.396397L29.3484 3.34482C29.1365 3.57329 29.0196 3.87258 29.0196 4.1833V12.2803C29.0196 14.4097 29.4504 16.1186 30.3132 17.4083C30.9949 18.4182 31.9001 19.2178 33.0275 19.8073C34.155 20.3967 35.3557 20.6915 36.6298 20.6915H37.2761V14.7969C36.6906 14.7764 35.1484 14.6393 34.9032 14.0704V14.0715Z" fill="#18243E"/>
<path d="M24.8226 14.316C24.4846 13.5301 24.5637 11.5127 24.5637 10.3235V1.47935C24.5637 0.797364 24.0091 0.244464 23.3251 0.244464H22.9115C22.5654 0.244464 22.2366 0.388401 22.0017 0.640861L19.2679 3.58928C19.0559 3.81775 18.939 4.11705 18.939 4.42777V12.5248C18.939 14.6541 19.3699 16.3631 20.2326 17.6528C20.9144 18.6627 21.8195 19.4623 22.947 20.0518C24.0744 20.6412 25.2752 20.9359 26.5493 20.9359H27.1955V15.0414C26.61 15.0208 25.0678 14.8837 24.8226 14.3148V14.316Z" fill="#18243E"/>
<path d="M55.1342 12.8504C55.0929 2.5703 39.508 2.86845 39.5092 13.0011C39.4611 22.188 52.8907 23.7073 55.015 14.6336H50.2325C49.8372 14.6336 49.4557 14.8072 49.2185 15.1225C48.0326 16.7012 45.6139 15.9678 45.3423 13.9013H55.0734C55.1135 13.4215 55.1342 13.072 55.1342 12.8515V12.8504ZM45.4707 11.2453C46.0069 9.22337 49.1853 8.86696 49.4786 11.2453H45.4707Z" fill="#18243E"/>
<path d="M14.8841 5.42619H12.9948C12.3852 5.42619 11.8627 5.79288 11.6336 6.31608C11.5545 6.49657 11.5098 6.69649 11.5098 6.90668V12.2712C11.5098 13.1268 11.2222 13.9664 10.6585 14.6119C10.1624 15.1808 9.45888 15.6194 8.51362 15.7451C6.6185 15.9964 5.12784 15.0802 4.90671 13.4238C4.68557 11.7663 5.81875 10.3326 7.71386 10.0813C8.69923 9.95105 9.88626 10.2561 10.5955 10.8135V6.08076C10.5955 5.96995 10.5233 5.86942 10.4156 5.83858C9.66856 5.62039 8.64767 5.4022 7.81813 5.4319C3.84801 5.57355 0.605461 8.77329 0.502341 12.7338C0.392346 16.9674 3.80676 20.5784 8.0301 20.4413C9.80949 20.383 10.9369 19.7593 11.763 19.0533C12.0312 19.3412 12.4872 19.7547 13.1552 20.0632C14.0225 20.463 15.0537 20.4927 15.5453 20.463C15.6793 20.455 16.1227 20.3453 16.1227 20.2105V6.66107C16.1227 5.97909 15.5682 5.42619 14.8841 5.42619Z" fill="#18243E"/>
<path d="M8.25238 10.9438C8.03583 10.986 7.32888 11.154 6.76974 11.8062C6.25644 12.4048 6.1705 13.0571 6.15217 13.2844C5.83708 12.7315 5.8325 12.0633 6.15217 11.5595C6.5635 10.9106 7.44919 10.6296 8.25352 10.9438H8.25238Z" fill="#18243E"/>
</svg>
