<svg width="55" height="55" viewBox="0 0 55 55" fill="none" xmlns="http://www.w3.org/2000/svg">
<path d="M2.68908 54.2453C2.49219 54.0984 2.2953 53.9547 2.10153 53.8078C0.654529 52.4827 0.21074 50.8138 0.220116 48.8886C0.257619 39.7284 0.235742 30.5714 0.238867 21.4112C0.238867 19.0453 0.795167 18.4984 3.18913 18.4984C18.4874 18.4984 33.7887 18.4984 49.0869 18.5015C52.8216 18.5015 54.4999 20.1986 54.4999 23.9426C54.4999 32.3715 54.4999 40.8035 54.4999 49.2324C54.4999 52.8671 52.7935 54.5704 49.1619 54.5704C34.7982 54.5704 20.4375 54.5641 6.07376 54.5766C4.92991 54.5766 3.79543 54.5485 2.68596 54.2391L2.68908 54.2453ZM27.2194 22.1519C19.9844 22.1519 12.7462 22.18 5.51121 22.1237C4.28923 22.1144 3.93607 22.4456 3.94545 23.6832C3.99857 32.1152 3.97045 40.5504 3.97357 48.9824C3.97357 50.8825 4.07671 50.9857 6.05188 50.9888C20.2625 50.9919 34.4763 50.9888 48.6869 50.9888C50.6933 50.9888 50.8058 50.8763 50.8058 48.8574C50.809 40.6316 50.809 32.4059 50.8058 24.1802C50.8058 22.2519 50.7215 22.1581 48.7713 22.155C41.5863 22.1456 34.4044 22.1519 27.2194 22.1519Z" fill="#7505E0"/>
<path d="M35.2262 4.26579C40.683 3.05631 46.1428 1.85621 51.5964 0.631104C52.5653 0.412335 53.4685 0.334197 54.1217 1.24053C54.7811 2.15623 54.4373 3.00319 53.856 3.81263C47.1304 5.39402 40.4048 6.98478 33.673 8.55367C29.0663 9.62877 24.4597 10.6976 19.8405 11.7102C18.7904 11.9415 18.2654 12.4009 18.4091 13.4947C18.5591 14.6417 18.0622 15.048 16.909 15.0355C11.7617 14.9761 6.61433 14.9605 1.467 14.9792C0.501288 14.9824 0.173134 14.6292 0.213763 13.6979C0.266892 12.504 0.201262 11.307 0.23564 10.1101C0.288769 8.31616 0.929451 7.66923 2.71398 7.66298C6.97686 7.64423 11.2897 7.26919 15.4901 7.77548C19.1029 8.2099 22.322 7.21606 25.6629 6.50037C28.86 5.81594 32.0353 5.01586 35.2169 4.26892L35.2262 4.26579Z" fill="#33CCCC"/>
<path d="M27.4317 24.8146C33.7792 24.8146 40.1266 24.8114 46.4741 24.8146C48.5492 24.8146 49.018 25.2959 49.0243 27.3992C49.0305 30.5713 49.0368 33.7466 49.0243 36.9188C49.0149 38.7345 48.5117 39.2596 46.7178 39.2627C33.8667 39.2721 21.0187 39.269 8.16755 39.2627C6.29238 39.2627 5.76108 38.722 5.75171 36.8438C5.73608 33.6716 5.74233 30.4963 5.75171 27.3242C5.75796 25.3427 6.27675 24.8208 8.2363 24.8208C14.6369 24.8146 21.0343 24.8208 27.4349 24.8208L27.4317 24.8146ZM27.363 28.4899C21.85 28.4899 16.337 28.5086 10.824 28.4711C9.78644 28.4649 9.31765 28.7212 9.3864 29.8588C9.47391 31.362 9.45516 32.8747 9.3864 34.381C9.34577 35.353 9.72393 35.628 10.6553 35.6249C21.8375 35.603 33.0197 35.603 44.1989 35.6249C45.1177 35.6249 45.5084 35.3842 45.4552 34.3967C45.3802 32.9434 45.3521 31.4777 45.4615 30.0306C45.5552 28.7837 45.1114 28.4461 43.8988 28.4586C38.3858 28.5149 32.8729 28.4836 27.3599 28.4836L27.363 28.4899Z" fill="#7505E0"/>
<path d="M36.4607 47.3541C32.9791 47.3541 29.4976 47.3322 26.016 47.3666C24.7315 47.3791 23.8158 46.9541 23.8002 45.5727C23.7877 44.1819 24.7221 43.7413 25.991 43.7444C32.9541 43.7538 39.9172 43.7444 46.8803 43.7444C48.1523 43.7444 49.0368 44.2257 49.0055 45.6352C48.9743 46.9666 48.1117 47.3666 46.9053 47.3603C43.4238 47.3447 39.9422 47.3541 36.4607 47.3541Z" fill="#7505E0"/>
<path d="M11.1898 45.5695C11.1367 46.2289 11.296 46.9165 10.8429 47.5197C10.3085 48.2322 9.60214 48.4823 8.78957 48.2041C7.58321 47.7884 7.45508 46.7321 7.45508 45.657C7.45508 44.5413 7.49883 43.4099 8.78645 42.9568C9.60214 42.6692 10.3022 42.9224 10.846 43.6256C11.3085 44.2256 11.1273 44.9163 11.1898 45.5726V45.5695Z" fill="#7505E0"/>
<path d="M18.4526 45.5663C18.3901 46.1007 18.437 46.7101 18.2276 47.2164C17.8744 48.0727 17.1181 48.4728 16.1993 48.2477C14.6585 47.8727 14.7085 46.5913 14.7023 45.385C14.696 44.2318 14.8867 43.1598 16.2649 42.8941C17.1994 42.7129 17.9151 43.1285 18.2526 44.0005C18.4307 44.4662 18.3901 45.0162 18.4526 45.5694V45.5663Z" fill="#7505E0"/>
<path d="M34.0668 33.8933C32.9229 33.9652 32.0447 33.4745 31.901 32.1463C31.7791 30.993 32.776 30.1492 34.1418 30.143C35.5294 30.1336 36.5201 30.9368 36.4326 32.0963C36.3295 33.4464 35.4294 33.912 34.0668 33.8964V33.8933Z" fill="#7505E0"/>
<path d="M41.4235 33.8903C40.2109 33.8903 39.239 33.5653 39.1671 32.1214C39.1077 30.8994 40.0078 30.115 41.4204 30.1431C42.6674 30.1681 43.5518 30.6775 43.63 32.0339C43.6956 33.1715 42.8205 33.8716 41.4235 33.8903Z" fill="#7505E0"/>
</svg>
