<svg width="19" height="22" viewBox="0 0 19 22" fill="none" xmlns="http://www.w3.org/2000/svg">
<path fill-rule="evenodd" clip-rule="evenodd" d="M12.1629 6.10352e-05C12.1629 6.10352e-05 10.1733 0.0109114 8.74193 1.91697C7.46803 3.60964 7.79366 5.05998 7.79366 5.05998C7.79366 5.05998 9.51844 5.36379 11.0357 3.51922C12.4599 1.794 12.1629 6.10352e-05 12.1629 6.10352e-05ZM10.7919 5.73524C10.2947 5.92087 9.88597 6.07344 9.57975 6.07344C9.19734 6.07344 8.736 5.90868 8.19994 5.71723C7.45909 5.45264 6.57552 5.13708 5.56035 5.13504C2.86937 5.13504 0 7.3668 0 11.623C0 15.9494 3.38935 21.3267 6.07274 21.3302C6.49058 21.3302 7.00796 21.1564 7.5815 20.9637C8.29477 20.724 9.09492 20.4551 9.89856 20.4551C10.6195 20.4551 11.244 20.6715 11.8604 20.8851C12.4609 21.0932 13.0538 21.2986 13.7206 21.2986C16.6621 21.2986 18.8369 15.6261 18.8369 15.6261C18.8369 15.6261 15.7246 14.5084 15.7246 11.2715C15.7246 8.40361 18.222 7.21919 18.222 7.21919C18.222 7.21919 16.9467 5.07881 13.6978 5.07881C12.5503 5.07881 11.5643 5.44691 10.7919 5.73524Z" fill="white"/>
</svg>
