<svg width="54" height="54" viewBox="0 0 54 54" fill="none" xmlns="http://www.w3.org/2000/svg">
<path d="M27.1164 53.1063C20.1705 53.1063 13.2247 53.1124 6.27574 53.1063C2.78135 53.1032 0.606169 50.9863 0.603101 47.5042C0.587762 33.5603 0.590833 19.6165 0.606172 5.67265C0.60924 2.22733 2.82429 0.0122718 6.26653 0.00920386C20.2104 -0.00306795 34.1542 -0.00306795 48.0981 0.00920386C51.5495 0.0122718 53.7646 2.21813 53.7707 5.65731C53.7861 19.6012 53.7922 33.545 53.7707 47.4888C53.7677 50.9648 51.5771 53.0971 48.1073 53.1001C41.1093 53.1093 34.1113 53.1001 27.1133 53.1001L27.1164 53.1063ZM4.19566 26.5255C4.19566 33.2658 4.19566 40.0092 4.19566 46.7495C4.19566 49.0443 4.71108 49.5873 6.93841 49.5904C20.4742 49.5965 34.007 49.5965 47.5428 49.5904C49.5922 49.5904 50.1751 49.0014 50.1751 46.9458C50.1782 33.3609 50.1782 19.776 50.1751 6.19113C50.1751 4.16628 49.6505 3.61405 47.6624 3.61405C34.0775 3.60485 20.4926 3.60791 6.90774 3.61405C4.67427 3.61405 4.19873 4.10185 4.19873 6.30158C4.19567 13.0419 4.19873 19.7852 4.19873 26.5255H4.19566Z" fill="#7505E0"/>
<path d="M43.1522 16.1436C43.1522 18.3403 43.186 20.5339 43.1338 22.7305C43.1154 23.5435 43.3209 24.0037 44.1186 24.3565C45.8796 25.1419 46.6711 26.6145 46.6711 28.5259C46.6711 30.7225 46.6712 32.9161 46.6834 35.1128C46.6957 37.1468 45.8643 38.6869 43.9683 39.4969C43.2504 39.8037 43.1184 40.2393 43.1399 40.9112C43.1737 41.9819 43.1645 43.0557 43.1399 44.1264C43.1154 45.2524 42.5846 45.9917 41.4004 46.0378C40.2008 46.0869 39.6578 45.326 39.5075 44.2491C39.4308 43.6969 39.443 43.1263 39.4829 42.5679C39.5995 41.0094 39.575 39.6963 37.7526 38.8802C36.461 38.3004 35.9977 36.837 36.01 35.3521C36.0253 33.0542 36.0223 30.7563 36.0131 28.4584C36.0069 26.59 36.8138 25.1726 38.4858 24.3995C39.3633 23.9945 39.4891 23.4361 39.4829 22.6078C39.4553 18.42 39.4707 14.2354 39.4737 10.0476C39.4737 9.59047 39.44 9.11494 39.5412 8.67622C39.7744 7.67914 40.3634 7.00726 41.474 7.0993C42.5632 7.18827 43.1154 7.88469 43.1277 8.94007C43.1553 11.3392 43.1369 13.7383 43.1369 16.1375H43.143L43.1522 16.1436ZM43.1031 31.9559C43.1031 30.9895 43.0571 30.02 43.1154 29.0566C43.189 27.8203 42.5908 27.4797 41.4556 27.4951C40.3726 27.5073 39.5167 27.5932 39.5412 28.9922C39.575 30.8729 39.5964 32.7566 39.5381 34.6372C39.4921 36.0761 40.2653 36.2602 41.4618 36.2786C42.7626 36.297 43.1952 35.7663 43.1154 34.5483C43.0602 33.6862 43.1031 32.821 43.1031 31.9559Z" fill="#7505E0"/>
<path d="M14.8906 16.1498C14.8906 18.3465 14.9243 20.5431 14.8752 22.7367C14.8568 23.5497 15.0624 24.013 15.8539 24.3842C17.5259 25.1665 18.3512 26.5655 18.3481 28.4339C18.3451 30.6796 18.3267 32.9284 18.3543 35.1742C18.3788 37.1683 17.5413 38.644 15.7373 39.4601C15.047 39.773 14.8599 40.1688 14.8844 40.8591C14.9212 41.9298 14.9366 43.0067 14.8691 44.0743C14.7985 45.2095 14.2954 46.0685 12.9946 46.0347C11.7122 46.0041 11.2274 45.1941 11.2213 44.0099C11.2182 43.5006 11.1998 42.9883 11.2244 42.479C11.298 40.991 11.3655 39.681 9.51551 38.9416C8.26685 38.4416 7.71769 37.0211 7.69622 35.6098C7.6594 33.1585 7.64406 30.7072 7.69929 28.2559C7.73917 26.4796 8.57672 25.0837 10.2242 24.3781C11.12 23.9946 11.2366 23.4423 11.2305 22.6109C11.2029 18.2698 11.2152 13.9286 11.2213 9.58745C11.2213 7.89087 11.8073 7.0932 13.013 7.084C14.1972 7.07479 14.8691 7.93382 14.8844 9.55983C14.9028 11.7565 14.8906 13.9531 14.8906 16.1467V16.1498ZM14.8261 31.962H14.8169C14.8169 30.8944 14.8384 29.8237 14.8108 28.756C14.7771 27.3785 13.7646 27.5288 12.835 27.5043C11.8901 27.4797 11.2428 27.6945 11.2612 28.8297C11.2919 30.6612 11.3195 32.4959 11.2489 34.3244C11.1998 35.6129 11.4821 36.2786 12.9884 36.3001C14.5807 36.3247 14.9212 35.5914 14.8323 34.2507C14.7832 33.4899 14.8231 32.726 14.8231 31.962H14.8261Z" fill="#7505E0"/>
<path d="M21.8914 21.2178C21.8914 19.5826 21.873 17.9474 21.8914 16.3152C21.916 14.4652 22.4958 13.6461 24.263 13.2964C25.1159 13.1276 25.3644 12.7717 25.3367 11.9833C25.303 11.0138 25.2999 10.0413 25.3582 9.07178C25.4257 7.91517 25.9626 7.07148 27.2358 7.10523C28.4078 7.13591 28.9293 7.92437 29.0122 9.02576C29.052 9.53504 29.0674 10.0505 29.0306 10.5567C28.9262 12.0354 28.8404 13.3485 30.9419 13.5755C31.9421 13.6829 32.4575 14.7383 32.4605 15.809C32.4789 19.4353 32.5035 23.0647 32.4575 26.691C32.436 28.2833 31.4328 29.216 29.8098 29.2589C28.0734 29.308 26.3369 29.3111 24.6004 29.2712C22.91 29.2313 21.9436 28.2741 21.9006 26.5806C21.8515 24.795 21.8914 23.0064 21.8884 21.2178H21.8914Z" fill="#33CCCC"/>
<path d="M29.0342 39.1472C29.0342 40.7272 29.0526 42.3103 29.028 43.8903C29.0096 45.099 28.5525 46.0348 27.1842 46.0348C25.8067 46.0348 25.3526 45.0745 25.3465 43.8811C25.3219 40.5677 25.3588 37.2512 25.3312 33.9378C25.3189 32.3885 26.4295 32.7904 27.2701 32.7628C28.1077 32.7352 29.0863 32.5388 29.0495 33.947C29.0035 35.6804 29.0372 37.4138 29.0372 39.1472H29.0342Z" fill="#33CCCC"/>
</svg>
