<svg width="22" height="22" viewBox="0 0 22 22" fill="none" xmlns="http://www.w3.org/2000/svg">
<path d="M10.9999 4.45734C13.0028 4.45734 14.3539 5.32252 15.1243 6.04549L18.1347 3.10622C16.2858 1.3877 13.8799 0.332886 10.9999 0.332886C6.82799 0.332886 3.22502 2.72696 1.47095 6.21141L4.91984 8.88994C5.78503 6.31808 8.17911 4.45734 10.9999 4.45734Z" fill="#EA4335"/>
<path d="M21.24 11.2367C21.24 10.3596 21.1689 9.71961 21.0148 9.05591H11V13.0144H16.8785C16.76 13.9981 16.12 15.4796 14.6978 16.4752L18.0637 19.0826C20.0785 17.2218 21.24 14.4841 21.24 11.2367Z" fill="#4285F4"/>
<path d="M4.93178 13.1092C4.70659 12.4454 4.57622 11.7343 4.57622 10.9995C4.57622 10.2647 4.70659 9.55359 4.91993 8.88989L1.47103 6.21136C0.748067 7.65729 0.333252 9.281 0.333252 10.9995C0.333252 12.718 0.748067 14.3417 1.47103 15.7877L4.93178 13.1092Z" fill="#FBBC05"/>
<path d="M11 21.6665C13.88 21.6665 16.2978 20.7183 18.0637 19.0828L14.6977 16.4754C13.797 17.1035 12.5881 17.542 11 17.542C8.17922 17.542 5.78514 15.6813 4.93181 13.1094L1.48291 15.788C3.23699 19.2724 6.8281 21.6665 11 21.6665Z" fill="#34A853"/>
</svg>
