<svg width="57" height="45" viewBox="0 0 57 45" fill="none" xmlns="http://www.w3.org/2000/svg">
<path d="M18.774 0.330015C20.6052 0.22001 22.4365 0.110005 24.271 0C24.6334 0.0873571 24.9925 0.207069 25.3581 0.258836C33.437 1.37183 39.332 5.57791 42.9493 12.8577C45.392 17.7756 45.8288 22.9814 44.3632 28.2617C43.9134 29.8826 44.4214 30.1026 45.8094 30.0056C47.0421 29.9182 48.2878 29.9861 49.5269 29.9861C51.5351 29.9861 52.5499 28.9702 52.5715 26.9384C52.5877 25.1944 53.2509 24.2821 54.5354 24.3823C56.0561 24.5021 56.4087 25.5503 56.3958 26.8963C56.3667 30.2353 56.399 33.5775 56.3893 36.9197C56.3764 40.7505 54.0889 43.0315 50.2549 43.038C44.5961 43.0444 38.9405 43.0477 33.2817 43.0315C32.3532 43.0315 31.4893 43.1803 30.6093 43.4974C26.9564 44.8142 23.2163 45.3481 19.3467 44.6557C10.7274 43.1156 4.69331 38.3239 1.70052 30.1091C-1.30522 21.8716 0.351334 14.3104 5.96484 7.64213C9.32 3.65929 13.7849 1.50448 18.774 0.330015ZM22.553 41.1161C32.7123 41.2552 41.1698 33.0275 41.3154 22.8552C41.4642 12.4888 33.217 3.98931 22.9089 3.88254C12.8111 3.77901 4.26299 12.0844 4.08504 22.1725C3.90386 32.4419 12.2222 40.9737 22.553 41.1161ZM37.5817 39.3366C41.4674 39.3366 44.8841 39.3366 48.2975 39.3366C52.4938 39.3366 52.6718 39.1198 52.5974 34.9849C52.5812 34.0046 52.29 33.6713 51.3129 33.6907C48.6275 33.7393 45.9388 33.7069 43.2502 33.7102C42.7746 33.7102 42.2439 33.6228 41.9366 34.1178C40.8074 35.9264 39.4647 37.5636 37.5784 39.3398L37.5817 39.3366Z" fill="#7505E0"/>
<path d="M28.3283 22.564C28.3089 25.7186 25.8338 28.1549 22.6727 28.1322C19.5796 28.1096 17.0139 25.5148 17.0624 22.4605C17.111 19.3901 19.722 16.8308 22.7827 16.847C25.8726 16.8664 28.3509 19.4192 28.3315 22.564H28.3283Z" fill="#33CCCC"/>
<path d="M27.4127 10.3082C27.4321 12.9548 25.4132 15.0546 22.7989 15.0999C20.2688 15.1452 18.0363 12.9904 17.9846 10.4538C17.9328 7.90099 20.0714 5.71706 22.6533 5.68471C25.3064 5.65235 27.3933 7.68098 27.4159 10.3049L27.4127 10.3082Z" fill="#33CCCC"/>
<path d="M22.8119 29.9797C25.4649 30.0088 27.4806 32.1118 27.4159 34.7779C27.3544 37.3953 25.1802 39.4563 22.566 39.3819C20.1167 39.3107 17.9813 37.0847 17.9878 34.6096C17.9943 32.0504 20.1847 29.9473 22.8151 29.9797H22.8119Z" fill="#33CCCC"/>
<path d="M30.2015 22.3828C30.2533 19.843 32.3822 17.7496 34.88 17.7852C37.449 17.8208 39.6393 20.0306 39.607 22.5575C39.5746 25.1588 37.4101 27.2425 34.7894 27.2004C32.1525 27.1583 30.1465 25.0521 30.2015 22.386V22.3828Z" fill="#33CCCC"/>
<path d="M15.3089 22.5704C15.296 25.1653 13.1282 27.2521 10.5043 27.2004C7.91269 27.1486 5.92936 25.1362 5.91318 22.5381C5.897 19.9174 8.01946 17.769 10.6111 17.782C13.1865 17.7949 15.3219 19.9724 15.3057 22.5704H15.3089Z" fill="#33CCCC"/>
</svg>
