<svg width="22" height="22" viewBox="0 0 22 22" fill="none" xmlns="http://www.w3.org/2000/svg">
<path opacity="0.4" d="M11 21C16.5228 21 21 16.5228 21 11C21 5.47715 16.5228 1 11 1C5.47715 1 1 5.47715 1 11C1 16.5228 5.47715 21 11 21Z" fill="white"/>
<path d="M11 21C16.5228 21 21 16.5228 21 11C21 5.47715 16.5228 1 11 1C5.47715 1 1 5.47715 1 11C1 16.5228 5.47715 21 11 21Z" stroke="white" stroke-width="1.5"/>
<path d="M8.5 10.1998V11.8002C8.5 13.3195 8.5 14.0791 8.95576 14.3862C9.4115 14.6932 10.0348 14.3535 11.2815 13.6741L12.7497 12.8738C14.2499 12.0562 15 11.6474 15 11C15 10.3526 14.2499 9.9438 12.7497 9.1262L11.2815 8.32594C10.0348 7.6465 9.4115 7.30678 8.95576 7.61382C8.5 7.92086 8.5 8.6805 8.5 10.1998Z" fill="white"/>
</svg>
