<svg width="54" height="54" viewBox="0 0 54 54" fill="none" xmlns="http://www.w3.org/2000/svg">
<path d="M27.0619 53.2631C19.2777 53.2631 11.4935 53.2631 3.70922 53.2631C3.24807 53.2631 2.78692 53.2631 2.32884 53.2385C1.2313 53.1801 0.55187 52.5345 0.542647 51.5046C0.530349 50.4009 1.20056 49.6968 2.39033 49.6938C5.76903 49.6815 9.15081 49.6753 12.5295 49.6723C13.9622 49.6723 14.6795 48.958 14.6816 47.5294C14.6816 44.4059 14.6662 41.2824 14.6908 38.1588C14.7092 35.9514 15.2442 35.4319 17.4146 35.4196C18.6936 35.4104 19.9756 35.3981 21.2545 35.4226C23.0376 35.4565 23.6709 36.0437 23.6924 37.833C23.7293 41.2117 23.7632 44.5934 23.6771 47.9721C23.6433 49.2972 23.9845 49.7553 25.3741 49.703C28.0549 49.6015 28.058 49.6846 28.058 47.0222C28.058 39.9051 28.0549 32.7849 28.058 25.6678C28.058 23.5495 28.5653 23.0392 30.6651 23.03C31.944 23.0238 33.226 23.0177 34.5049 23.03C36.4049 23.0515 36.9675 23.6079 36.9705 25.5079C36.9767 32.9324 37.0259 40.3601 36.9336 47.7846C36.9121 49.3771 37.3794 49.9243 38.8981 49.6815C39.2486 49.6261 39.6175 49.6323 39.9711 49.6815C41.084 49.829 41.33 49.3064 41.3238 48.2734C41.2808 42.6935 41.3023 37.1105 41.3054 31.5275C41.3054 28.7544 41.7542 28.3025 44.4842 28.3056C45.6094 28.3056 46.7377 28.2933 47.8629 28.3086C49.643 28.3332 50.2578 28.9266 50.2609 30.7128C50.2732 36.5509 50.2824 42.3891 50.2486 48.2273C50.2425 49.2111 50.4054 49.7952 51.5737 49.6876C52.8126 49.5739 53.7042 50.0904 53.8179 51.4277C53.9132 52.5345 52.994 53.2569 51.4907 53.26C43.3498 53.2754 35.2059 53.2661 27.065 53.2661L27.0619 53.2631ZM33.3397 38.0973C33.3397 34.7248 33.3397 31.3522 33.3397 27.9797C33.3397 27.331 33.5057 26.6423 32.4082 26.6731C31.3537 26.7038 31.6212 27.4232 31.6181 27.9582C31.5997 34.7525 31.6058 41.5498 31.6058 48.3441C31.6058 49.0143 31.5013 49.7153 32.5589 49.6815C33.5857 49.6507 33.3274 48.916 33.3305 48.3657C33.349 44.9439 33.3397 41.5191 33.3367 38.0943L33.3397 38.0973ZM44.97 40.7105C44.97 43.2622 44.9608 45.814 44.9761 48.3626C44.9792 48.9313 44.7609 49.6569 45.7662 49.6723C46.7316 49.6876 46.6363 49.0174 46.6363 48.4117C46.6393 43.3606 46.6424 38.3095 46.627 33.2583C46.627 32.6927 46.8269 31.9917 45.8154 31.9671C44.7947 31.9425 44.9761 32.625 44.9761 33.2091C44.9669 35.7086 44.973 38.208 44.973 40.7105H44.97ZM20.034 44.4121C20.034 42.9333 20.0217 41.4545 20.0401 39.9758C20.0494 39.3517 19.8495 39.0565 19.1639 39.0565C18.4415 39.0565 18.3246 39.4316 18.3246 40.0157C18.3339 42.921 18.3339 45.8262 18.3246 48.7346C18.3246 49.3587 18.5245 49.6815 19.2039 49.6753C19.8987 49.6661 20.0524 49.2941 20.0432 48.6946C20.0248 47.2681 20.0371 45.8386 20.0371 44.4121H20.034Z" fill="#7505E0"/>
<path d="M45.7999 23.0361C46.6699 23.0361 47.543 23.0084 48.41 23.0453C49.4645 23.0914 50.1562 23.6141 50.2331 24.7239C50.3099 25.8368 49.6797 26.5654 48.6529 26.6269C46.7683 26.7437 44.8653 26.7499 42.9776 26.6331C41.9569 26.5716 41.2867 25.7999 41.3605 24.7331C41.4312 23.6848 42.1076 23.073 43.1898 23.0361C44.0598 23.0084 44.9298 23.03 45.7999 23.033V23.0361Z" fill="#7505E0"/>
<path d="M32.4418 10.6864C31.5718 10.6864 30.7017 10.7294 29.8348 10.6741C28.7741 10.6095 28.1008 10.0346 28.0762 8.93401C28.0486 7.75039 28.7495 7.12014 29.8747 7.08325C31.6117 7.02484 33.3518 7.04021 35.0888 7.08017C36.2232 7.10784 36.9734 7.73194 36.9334 8.88789C36.8965 9.99465 36.2109 10.6587 35.0458 10.6833C34.1757 10.7017 33.3057 10.6864 32.4387 10.6833L32.4418 10.6864Z" fill="#7505E0"/>
<path d="M32.3898 15.9803C31.5197 15.9803 30.6497 16.0172 29.7827 15.9711C28.6883 15.9158 28.098 15.2702 28.0765 14.1972C28.055 13.1765 28.6575 12.4817 29.629 12.4356C31.5659 12.3403 33.515 12.3341 35.4488 12.4448C36.4264 12.5002 36.989 13.2718 36.9429 14.2618C36.8998 15.2456 36.3034 15.8881 35.3012 15.9588C34.3358 16.0295 33.3613 15.9742 32.3898 15.9742V15.9803Z" fill="#7505E0"/>
<path d="M19.1392 33.7717C18.3215 33.7717 17.5037 33.8025 16.689 33.7656C15.573 33.7164 14.8321 33.1784 14.786 31.9948C14.7399 30.7927 15.4838 30.1809 16.5783 30.1348C18.3614 30.0579 20.1538 30.0641 21.94 30.144C22.9975 30.1901 23.6493 30.8972 23.637 31.9579C23.6216 33.0154 22.9545 33.6641 21.9 33.7471C20.9869 33.8209 20.0615 33.7625 19.1423 33.7625C19.1423 33.7656 19.1423 33.7686 19.1423 33.7748L19.1392 33.7717Z" fill="#7505E0"/>
<path d="M45.7727 21.2685C44.8534 21.2685 43.9342 21.2993 43.0181 21.2624C41.982 21.2193 41.401 20.5676 41.3579 19.6022C41.3149 18.643 41.8406 17.8375 42.849 17.7914C44.8319 17.7023 46.8241 17.6992 48.804 17.813C49.7908 17.8714 50.2827 18.6492 50.2243 19.6576C50.1659 20.6106 49.6002 21.1763 48.6779 21.2501C47.7157 21.3269 46.7411 21.2655 45.7727 21.2685Z" fill="#7505E0"/>
<path d="M32.4725 21.2744C31.5564 21.2744 30.6341 21.3175 29.721 21.2621C28.7126 21.2007 28.1254 20.595 28.0793 19.5928C28.0363 18.5936 28.5743 17.8404 29.5642 17.7943C31.5441 17.699 33.5363 17.6959 35.5131 17.8066C36.5122 17.8619 37.001 18.692 36.9365 19.6604C36.875 20.5612 36.3278 21.1914 35.3747 21.2498C34.4094 21.3082 33.4379 21.2621 32.4725 21.2621C32.4725 21.2652 32.4725 21.2714 32.4725 21.2744Z" fill="#7505E0"/>
<path d="M21.9338 4.6915C21.8938 5.72756 22.0537 6.96345 21.6294 8.15629C21.0853 9.68732 20.0923 10.7941 18.592 11.4212C17.1778 12.0115 15.7697 12.6356 14.3217 13.1367C13.341 13.4749 12.9844 14.016 13.009 15.0582C13.0735 17.613 13.0459 20.1739 13.0182 22.7318C12.9813 26.2088 10.8354 28.3486 7.34603 28.4285C3.58303 28.5146 1.4064 27.1711 0.687003 24.3212C-0.0293192 21.4836 1.76917 18.4984 4.64368 17.8712C5.53217 17.6775 6.46984 17.6622 7.386 17.6406C9.38124 17.5945 9.38432 17.613 9.38739 15.5593C9.39354 13.0537 9.39969 10.5451 9.38739 8.03947C9.3751 5.51851 10.4911 3.71693 12.8091 2.73007C14.8782 1.84773 16.9687 1.00843 19.0746 0.221396C20.7901 -0.418068 21.8539 0.353612 21.9246 2.20129C21.9553 2.9668 21.9307 3.73538 21.9307 4.68843L21.9338 4.6915ZM18.2384 5.82903C18.0294 5.57694 18.512 4.59004 17.7619 4.79602C16.2124 5.2172 14.5246 5.54617 13.3933 6.84662C12.8214 7.50453 12.7784 8.51293 13.1873 9.17392C13.6577 9.93328 14.3494 9.10936 14.9243 8.94334C15.5607 8.75888 16.1602 8.45449 16.7812 8.21776C17.8234 7.82117 18.3153 7.07718 18.2384 5.83207V5.82903Z" fill="#33CCCC"/>
</svg>
