<svg width="44" height="54" viewBox="0 0 44 54" fill="none" xmlns="http://www.w3.org/2000/svg">
<path d="M28.2445 35.0908C28.2445 31.2244 28.2323 27.3579 28.2476 23.4915C28.2628 19.8877 30.3304 17.8079 33.925 17.7651C35.4001 17.7468 36.8783 17.7132 38.3504 17.7835C41.1509 17.9148 43.3559 19.9121 43.417 22.7035C43.5422 28.6528 43.4812 34.6052 43.4751 40.5545C43.4751 41.7547 42.8276 42.5457 41.609 42.4877C40.3905 42.4297 39.8957 41.5562 39.8988 40.3804C39.9018 34.9869 39.9018 29.5965 39.8988 24.2031C39.8988 21.7568 39.5414 21.4056 37.0554 21.3872C36.0904 21.3811 35.1222 21.3781 34.1571 21.3872C32.34 21.4056 31.8086 21.9217 31.8055 23.7602C31.7964 31.5939 31.8055 39.4275 31.7994 47.2612C31.7964 50.0801 30.4984 51.9767 28.1101 52.7951C27.5146 52.9998 26.916 53.0089 26.3052 53.0089C22.7442 53.0089 19.1831 53.015 15.6221 53.0089C12.1588 52.9998 10.0668 51.0391 9.97211 47.6094C9.94157 46.5649 9.7644 46.0365 8.56416 45.78C6.70424 45.3829 5.60174 43.9903 5.44598 42.0815C5.03674 37.0668 4.69773 32.0489 4.36484 27.0281C4.28543 25.8278 4.7283 24.8689 6.11178 24.8444C7.47084 24.82 7.91365 25.7118 7.99 26.9365C8.14575 29.4225 8.37177 31.9024 8.50309 34.3884C8.54585 35.1763 8.82681 35.4634 9.59949 35.4451C11.0227 35.4084 12.4489 35.3931 13.8721 35.4512C14.7761 35.4878 14.9624 35.0725 15.0052 34.2723C15.1335 31.8352 15.3564 29.4041 15.5121 26.9701C15.5885 25.7698 15.958 24.8475 17.3476 24.8353C18.5295 24.8231 19.1281 25.6141 19.0365 27.1991C18.7403 32.1711 18.4257 37.1462 18.0562 42.1121C17.9188 43.9384 16.5291 45.4318 14.7547 45.8838C14.1622 46.0335 13.3926 45.8563 13.4659 46.9283C13.5331 47.93 13.5453 48.9165 14.6723 49.3166C15.1365 49.4815 15.6679 49.509 16.1657 49.509C19.2686 49.5242 22.3715 49.5212 25.4745 49.5151C27.6642 49.512 28.2139 49.002 28.2292 46.8428C28.2537 42.9275 28.2353 39.0091 28.2353 35.0908H28.2445ZM11.7587 38.9481C8.43286 38.9847 8.88181 38.5999 8.89402 40.8416C8.90013 42.0846 9.45595 42.5885 10.6715 42.4969C11.2762 42.4511 11.887 42.4938 12.4917 42.4908C14.373 42.4846 14.5776 42.1884 14.6662 40.0933C14.7425 38.2884 13.4354 39.1344 12.6688 38.9603C12.3787 38.8931 12.0641 38.9511 11.7587 38.9481Z" fill="#7505E0"/>
<path d="M11.7863 23.1097C10.0058 23.1097 8.2253 23.1494 6.44479 23.1005C3.61063 23.0242 1.55526 21.3322 1.22236 18.5164C0.834499 15.2333 0.761183 11.8952 1.35672 8.63346C2.32791 3.33162 7.14111 -0.208026 12.5895 0.158461C17.7937 0.506623 22.0693 4.8617 22.3136 10.1849C22.4297 12.7228 22.4114 15.273 22.3381 17.8109C22.2495 20.9138 20.0689 23.0242 16.969 23.1036C15.2405 23.1463 13.5119 23.1127 11.7802 23.1127L11.7863 23.1097ZM11.6825 16.3846C12.8461 16.4671 13.9639 16.3419 14.2906 14.937C14.4556 14.2254 14.083 13.578 13.4416 13.3001C12.2872 12.7992 11.0564 12.79 9.92336 13.3734C9.28506 13.7032 9.04685 14.3629 9.23926 15.0775C9.57826 16.3419 10.5891 16.4396 11.6825 16.3816V16.3846ZM11.6947 10.2552C13.0415 10.2613 13.466 10.133 13.915 9.55884C14.5136 8.79227 14.4281 8.04708 13.7776 7.37214C13.0446 6.61473 10.5739 6.56892 9.77372 7.30189C9.07739 7.93714 8.97661 8.6976 9.50801 9.48554C10.0364 10.2704 10.8731 10.2643 11.6947 10.2552Z" fill="#33CCCC"/>
<path d="M13.4903 27.9443C13.5484 29.1812 13.0994 30.0485 11.7465 30.1188C10.5493 30.1798 9.91404 29.34 9.94153 27.8435C9.96902 26.4386 10.5951 25.7209 11.7801 25.7454C12.9253 25.7667 13.4964 26.4997 13.4903 27.9473V27.9443Z" fill="#7505E0"/>
<path d="M39.8834 47.3192C39.8651 46.1128 40.2927 45.2211 41.6181 45.1111C42.7695 45.0164 43.478 45.9174 43.4994 47.3253C43.5177 48.55 43.0535 49.4112 41.7647 49.5487C40.6683 49.6678 39.8834 48.6844 39.8804 47.3192H39.8834Z" fill="#7505E0"/>
<path d="M11.7588 38.9481C12.0611 38.9481 12.3787 38.8931 12.6689 38.9603C13.4354 39.1343 14.7426 38.2914 14.6662 40.0933C14.5777 42.1884 14.373 42.4846 12.4917 42.4908C11.884 42.4908 11.2732 42.4511 10.6715 42.4969C9.45599 42.5915 8.90323 42.0846 8.89406 40.8416C8.88185 38.5999 8.4329 38.9878 11.7588 38.9481Z" fill="#33CCCC"/>
<path d="M11.6825 16.3847C10.5861 16.4427 9.57827 16.345 9.23927 15.0806C9.04686 14.366 9.28813 13.7032 9.92337 13.3764C11.0564 12.7931 12.2842 12.8023 13.4416 13.3031C14.083 13.5811 14.4586 14.2255 14.2906 14.9401C13.9639 16.345 12.8461 16.4702 11.6825 16.3877V16.3847Z" fill="#7505E0"/>
</svg>
