<svg width="20" height="20" viewBox="0 0 20 20" fill="none" xmlns="http://www.w3.org/2000/svg">
<path opacity="0.4" d="M12.5001 1.04163C12.7923 1.04163 13.0456 1.24417 13.1098 1.52928L13.5587 3.52226C13.8865 4.97728 15.0227 6.11353 16.4777 6.44129L18.4707 6.89023C18.7559 6.95446 18.9584 7.2077 18.9584 7.49996C18.9584 7.79222 18.7559 8.04546 18.4707 8.10968L16.4777 8.55863C15.0227 8.88638 13.8865 10.0226 13.5587 11.4776L13.1098 13.4706C13.0456 13.7558 12.7923 13.9583 12.5001 13.9583C12.2078 13.9583 11.9546 13.7558 11.8903 13.4706L11.4414 11.4776C11.1137 10.0226 9.97741 8.88638 8.52241 8.55863L6.5294 8.10968C6.24429 8.04546 6.04175 7.79222 6.04175 7.49996C6.04175 7.2077 6.24429 6.95446 6.5294 6.89023L8.52241 6.44129C9.97741 6.11353 11.1137 4.97728 11.4414 3.52226L11.8903 1.52928C11.9546 1.24417 12.2078 1.04163 12.5001 1.04163Z" fill="#888FA8"/>
<path d="M5.83341 9.375C6.12567 9.375 6.37891 9.5775 6.44314 9.86267L6.76381 11.2862C6.98277 12.2582 7.74185 13.0173 8.71383 13.2362L10.1374 13.5569C10.4226 13.6212 10.6251 13.8744 10.6251 14.1667C10.6251 14.4589 10.4226 14.7122 10.1374 14.7764L8.71383 15.0971C7.74185 15.316 6.98277 16.0751 6.76381 17.0471L6.44314 18.4707C6.37891 18.7558 6.12567 18.9583 5.83341 18.9583C5.54116 18.9583 5.28791 18.7558 5.22369 18.4707L4.90302 17.0471C4.68406 16.0751 3.92498 15.316 2.95296 15.0971L1.5294 14.7764C1.24429 14.7122 1.04175 14.4589 1.04175 14.1667C1.04175 13.8744 1.24429 13.6212 1.5294 13.5569L2.95296 13.2362C3.92498 13.0173 4.68406 12.2582 4.90302 11.2862L5.22369 9.86267C5.28791 9.5775 5.54116 9.375 5.83341 9.375Z" fill="#888FA8"/>
</svg>
