<svg width="20" height="20" viewBox="0 0 20 20" fill="none" xmlns="http://www.w3.org/2000/svg">
<g opacity="0.5">
<path d="M4.00018 12.2077C6.65284 10.6529 10.0128 10.6529 12.6655 12.2077C12.7495 12.2569 12.8542 12.315 12.9732 12.3811C13.5003 12.6738 14.3102 13.1234 14.8647 13.6576C15.211 13.9913 15.5523 14.4419 15.6146 15.003C15.6814 15.6043 15.4127 16.1592 14.8992 16.6409C14.0241 17.4615 12.9675 18.1249 11.5988 18.1249H5.06682C3.6982 18.1249 2.6416 17.4614 1.76653 16.6409C1.25293 16.1592 0.984302 15.6043 1.05108 15.003C1.11339 14.4419 1.45468 13.9913 1.80092 13.6576C2.35541 13.1234 3.16534 12.6738 3.69254 12.3811C3.81155 12.315 3.91618 12.2569 4.00018 12.2077Z" fill="white"/>
<path d="M4.37451 5.83333C4.37451 3.64721 6.14671 1.875 8.33284 1.875C10.519 1.875 12.2912 3.64721 12.2912 5.83333C12.2912 8.01946 10.519 9.79167 8.33284 9.79167C6.14671 9.79167 4.37451 8.01946 4.37451 5.83333Z" fill="white"/>
</g>
<path d="M15.8324 1.875C16.3398 1.875 16.6626 2.25423 16.8253 2.58377L16.8256 2.58454L17.2342 3.40832L17.9611 3.53008C18.3262 3.59145 18.7636 3.7945 18.9132 4.26409C19.0626 4.73277 18.8249 5.15136 18.5631 5.41392L18.5622 5.41476L17.9956 5.98605L18.1568 6.68887C18.2385 7.04631 18.2638 7.61382 17.8117 7.94606C17.3571 8.28022 16.8221 8.08156 16.5073 7.89407L15.8327 7.49145L15.1584 7.89395C14.8417 8.08332 14.3081 8.27878 13.8544 7.94496C13.4036 7.61335 13.4262 7.04784 13.5087 6.68832L13.6698 5.98605L13.1017 5.41324C12.8415 5.15088 12.6046 4.73293 12.7528 4.26522C12.9016 3.79512 13.3389 3.5915 13.7046 3.53003L14.4285 3.40877L14.8378 2.58337L14.8384 2.58221C15.0023 2.25342 15.3257 1.875 15.8324 1.875Z" fill="white"/>
</svg>
