<svg width="137" height="51" viewBox="0 0 137 51" fill="none" xmlns="http://www.w3.org/2000/svg">
<g filter="url(#filter0_b_6015_1674)">
<path d="M0 25.5C0 11.4167 11.4167 0 25.5 0H111.5C125.583 0 137 11.4167 137 25.5V25.5C137 39.5833 125.583 51 111.5 51H25.5C11.4167 51 0 39.5833 0 25.5V25.5Z" fill="white"/>
<path d="M25.5 0.5H111.5C125.307 0.5 136.5 11.6929 136.5 25.5C136.5 39.3071 125.307 50.5 111.5 50.5H25.5C11.6929 50.5 0.5 39.3071 0.5 25.5C0.5 11.6929 11.6929 0.5 25.5 0.5Z" stroke="white" stroke-opacity="0.2"/>
<g clip-path="url(#clip0_6015_1674)">
<path d="M89.324 33.4664H83.6994V25.3991C83.6994 24.78 83.6341 24.3493 83.5034 24.1094C83.3728 23.8695 83.1368 23.7496 82.7965 23.7496C82.1652 23.7496 81.8489 24.3047 81.8489 25.414V33.4653H76.2243V25.398C76.2243 24.7788 76.1567 24.3482 76.0215 24.1083C75.8863 23.8684 75.648 23.7484 75.3077 23.7484C74.6855 23.7484 74.375 24.3036 74.375 25.4128V33.4641H68.7504V24.2579C68.7504 22.5786 69.3164 21.1518 70.4496 19.9775C71.5828 18.8032 72.9554 18.216 74.5698 18.216C76.1842 18.216 77.7276 18.9163 79.0509 20.3156C80.5244 18.9163 81.999 18.216 83.4725 18.216C85.347 18.216 86.8514 18.8957 87.9846 20.2551C88.8771 21.3152 89.3228 22.8597 89.3228 24.8885V33.4653L89.324 33.4664Z" fill="#18243E"/>
<path d="M91.9902 39V26.5255C91.9902 24.2362 92.5917 22.3719 93.7948 20.9325C94.4868 20.1032 95.3668 19.4429 96.4347 18.9528C97.5025 18.4627 98.5979 18.2183 99.7208 18.2183C101.956 18.2183 103.841 18.9677 105.375 20.4676C106.909 21.9675 107.676 23.8067 107.676 25.9851C107.676 28.1636 106.914 29.9343 105.39 31.473C103.866 33.0129 102.062 33.7817 99.9763 33.7817C99.6348 33.7817 99.1341 33.7463 98.473 33.6766V27.4988C98.9336 27.8689 99.3954 28.054 99.856 28.054C100.438 28.054 100.936 27.8392 101.352 27.4097C101.768 26.9801 101.977 26.4707 101.977 25.8801C101.977 25.2895 101.761 24.788 101.329 24.3733C100.899 23.9586 100.382 23.7507 99.7803 23.7507C98.3367 23.7507 97.6148 24.7457 97.6148 26.7345V33.4664C97.506 34.0216 96.9125 36.7336 94.4353 38.1855C93.5232 38.7201 92.6341 38.9212 91.9902 38.9989V39Z" fill="#18243E"/>
<path d="M117.256 18.2034C119.381 18.2034 121.203 18.9654 122.722 20.4904C124.242 22.0143 125.001 23.8421 125.001 25.9703C125.001 28.0985 124.231 29.9685 122.692 31.4879C121.154 33.0072 119.296 33.7669 117.121 33.7669C114.945 33.7669 113.085 33.0049 111.541 31.4799C109.996 29.956 109.225 28.1191 109.225 25.9692C109.225 23.8192 109.997 21.9389 111.541 20.4436C113.084 18.9494 114.989 18.2023 117.256 18.2023V18.2034ZM117.104 23.7359C116.503 23.7359 115.992 23.9529 115.57 24.3881C115.149 24.8234 114.939 25.3557 114.939 25.9851C114.939 26.6146 115.152 27.1344 115.578 27.5742C116.005 28.014 116.513 28.2344 117.104 28.2344C117.696 28.2344 118.219 28.0151 118.646 27.5742C119.072 27.1344 119.285 26.6043 119.285 25.9851C119.285 25.366 119.074 24.8234 118.654 24.3881C118.232 23.9529 117.716 23.7359 117.104 23.7359Z" fill="#18243E"/>
<path d="M46.4032 27.0715C46.0652 26.2856 46.1442 24.2682 46.1442 23.079H47.4321C48.1161 23.079 48.6707 22.5261 48.6707 21.8441V19.9638C48.6707 19.2818 48.1161 18.7289 47.4321 18.7289H46.1442V14.2349C46.1442 13.5529 45.5897 13 44.9056 13H44.492C44.146 13 43.8171 13.1439 43.5823 13.3964L40.8484 16.3448C40.6365 16.5733 40.5196 16.8726 40.5196 17.1833V25.2803C40.5196 27.4097 40.9504 29.1186 41.8132 30.4083C42.4949 31.4182 43.4001 32.2178 44.5275 32.8073C45.655 33.3967 46.8557 33.6915 48.1298 33.6915H48.7761V27.7969C48.1906 27.7764 46.6484 27.6393 46.4032 27.0704V27.0715Z" fill="#18243E"/>
<path d="M36.3226 27.316C35.9846 26.5301 36.0637 24.5127 36.0637 23.3235V14.4793C36.0637 13.7974 35.5091 13.2445 34.8251 13.2445H34.4115C34.0654 13.2445 33.7366 13.3884 33.5017 13.6409L30.7679 16.5893C30.5559 16.8178 30.439 17.117 30.439 17.4278V25.5248C30.439 27.6541 30.8699 29.3631 31.7326 30.6528C32.4144 31.6627 33.3195 32.4623 34.447 33.0518C35.5744 33.6412 36.7752 33.9359 38.0493 33.9359H38.6955V28.0414C38.11 28.0208 36.5678 27.8837 36.3226 27.3148V27.316Z" fill="#18243E"/>
<path d="M66.6342 25.8504C66.5929 15.5703 51.008 15.8685 51.0092 26.0011C50.9611 35.188 64.3907 36.7073 66.515 27.6336H61.7325C61.3372 27.6336 60.9557 27.8072 60.7185 28.1225C59.5326 29.7012 57.1139 28.9678 56.8423 26.9013H66.5734C66.6135 26.4215 66.6342 26.072 66.6342 25.8515V25.8504ZM56.9707 24.2453C57.5069 22.2234 60.6853 21.867 60.9786 24.2453H56.9707Z" fill="#18243E"/>
<path d="M26.3841 18.4262H24.4948C23.8852 18.4262 23.3627 18.7929 23.1336 19.3161C23.0545 19.4966 23.0098 19.6965 23.0098 19.9067V25.2712C23.0098 26.1268 22.7222 26.9664 22.1585 27.6119C21.6624 28.1808 20.9589 28.6194 20.0136 28.7451C18.1185 28.9964 16.6278 28.0802 16.4067 26.4238C16.1856 24.7663 17.3187 23.3326 19.2139 23.0813C20.1992 22.9511 21.3863 23.2561 22.0955 23.8135V19.0808C22.0955 18.9699 22.0233 18.8694 21.9156 18.8386C21.1686 18.6204 20.1477 18.4022 19.3181 18.4319C15.348 18.5735 12.1055 21.7733 12.0023 25.7338C11.8923 29.9674 15.3068 33.5784 19.5301 33.4413C21.3095 33.383 22.4369 32.7593 23.263 32.0533C23.5312 32.3412 23.9872 32.7547 24.6552 33.0632C25.5225 33.463 26.5537 33.4927 27.0453 33.463C27.1793 33.455 27.6227 33.3453 27.6227 33.2105V19.6611C27.6227 18.9791 27.0682 18.4262 26.3841 18.4262Z" fill="#18243E"/>
<path d="M19.7524 23.9438C19.5358 23.986 18.8289 24.154 18.2697 24.8062C17.7564 25.4048 17.6705 26.0571 17.6522 26.2844C17.3371 25.7315 17.3325 25.0633 17.6522 24.5595C18.0635 23.9106 18.9492 23.6296 19.7535 23.9438H19.7524Z" fill="#18243E"/>
</g>
</g>
<defs>
<filter id="filter0_b_6015_1674" x="-6" y="-6" width="149" height="63" filterUnits="userSpaceOnUse" color-interpolation-filters="sRGB">
<feFlood flood-opacity="0" result="BackgroundImageFix"/>
<feGaussianBlur in="BackgroundImageFix" stdDeviation="3"/>
<feComposite in2="SourceAlpha" operator="in" result="effect1_backgroundBlur_6015_1674"/>
<feBlend mode="normal" in="SourceGraphic" in2="effect1_backgroundBlur_6015_1674" result="shape"/>
</filter>
<clipPath id="clip0_6015_1674">
<rect width="113" height="26" fill="white" transform="translate(12 13)"/>
</clipPath>
</defs>
</svg>
